<?xml version="1.0" encoding="UTF-8"?>
<svg version="1.1" xmlns="http://www.w3.org/2000/svg" width="512" height="512">
<path d="M0 0 C0.90186035 0.17692383 1.8037207 0.35384766 2.73291016 0.53613281 C9.20599895 1.83501287 15.60888488 3.34657126 22 5 C22.82000488 5.20963379 23.64000977 5.41926758 24.48486328 5.63525391 C58.17024255 14.44485883 88.96649009 31.29229379 116 53 C117.50046875 54.19109375 117.50046875 54.19109375 119.03125 55.40625 C132.89778302 66.7515952 146.2899831 79.6029281 157 94 C157.45971191 94.59973633 157.91942383 95.19947266 158.39306641 95.81738281 C183.7457788 128.9479423 200.63105558 166.93602242 208 208 C208.16226074 208.83128418 208.32452148 209.66256836 208.49169922 210.51904297 C213.76694663 238.13651472 213.55756833 270.45402542 208 298 C207.82307617 298.90186035 207.64615234 299.8037207 207.46386719 300.73291016 C206.16498713 307.20599895 204.65342874 313.60888488 203 320 C202.79036621 320.82000488 202.58073242 321.64000977 202.36474609 322.48486328 C193.55514117 356.17024255 176.70770621 386.96649009 155 414 C154.2059375 415.0003125 153.411875 416.000625 152.59375 417.03125 C141.2484048 430.89778302 128.3970719 444.2899831 114 455 C113.10039551 455.68956787 113.10039551 455.68956787 112.18261719 456.39306641 C79.0520577 481.7457788 41.06397758 498.63105558 0 506 C-0.83128418 506.16226074 -1.66256836 506.32452148 -2.51904297 506.49169922 C-30.13651472 511.76694663 -62.45402542 511.55756833 -90 506 C-90.90186035 505.82307617 -91.8037207 505.64615234 -92.73291016 505.46386719 C-99.20599895 504.16498713 -105.60888488 502.65342874 -112 501 C-112.82000488 500.79036621 -113.64000977 500.58073242 -114.48486328 500.36474609 C-148.17024255 491.55514117 -178.96649009 474.70770621 -206 453 C-207.0003125 452.2059375 -208.000625 451.411875 -209.03125 450.59375 C-222.89778302 439.2484048 -236.2899831 426.3970719 -247 412 C-247.68956787 411.10039551 -247.68956787 411.10039551 -248.39306641 410.18261719 C-273.7457788 377.0520577 -290.63105558 339.06397758 -298 298 C-298.16226074 297.16871582 -298.32452148 296.33743164 -298.49169922 295.48095703 C-303.76694663 267.86348528 -303.55756833 235.54597458 -298 208 C-297.82307617 207.09813965 -297.64615234 206.1962793 -297.46386719 205.26708984 C-296.16498713 198.79400105 -294.65342874 192.39111512 -293 186 C-292.79036621 185.17999512 -292.58073242 184.35999023 -292.36474609 183.51513672 C-283.55514117 149.82975745 -266.70770621 119.03350991 -245 92 C-244.2059375 90.9996875 -243.411875 89.999375 -242.59375 88.96875 C-231.2484048 75.10221698 -218.3970719 61.7100169 -204 51 C-203.40026367 50.54028809 -202.80052734 50.08057617 -202.18261719 49.60693359 C-169.0520577 24.2542212 -131.06397758 7.36894442 -90 0 C-89.16871582 -0.16226074 -88.33743164 -0.32452148 -87.48095703 -0.49169922 C-59.86348528 -5.76694663 -27.54597458 -5.55756833 0 0 Z " fill="#070707" transform="translate(301,3)"/>
<path d="M0 0 C1.36413119 0.8805855 2.72278768 1.7701911 4.0625 2.6875 C0.94958633 8.51902493 -2.13377262 14.27450334 -5.9375 19.6875 C-9.77139204 18.24979049 -13.35313869 16.48919455 -16.97265625 14.58984375 C-24.93133903 10.93486219 -36.94316476 11.24602121 -45.19921875 13.62890625 C-47.63199428 14.81735249 -49.75447992 16.09070174 -51.9375 17.6875 C-52.54980469 18.10644531 -53.16210938 18.52539062 -53.79296875 18.95703125 C-57.18166257 21.49251475 -58.53173909 23.78260859 -59.9375 27.6875 C-48.75202192 31.64026293 -37.55328659 35.53304797 -26.27075195 39.20141602 C-22.21104961 40.53535841 -18.22130067 41.94836092 -14.265625 43.56640625 C-7.54687813 46.30077998 -0.67497656 48.59586599 6.1875 50.9375 C7.53914228 51.40080897 8.89070535 51.86434911 10.2421875 52.328125 C13.51471801 53.4505775 16.78830267 54.56991753 20.0625 55.6875 C18.62417926 69.78304321 12.11000867 81.8573498 1.25 91.0625 C-11.87825539 100.88855618 -26.2747345 103.40179931 -42.37109375 101.22265625 C-58.55931083 97.93837211 -71.37197284 89.2770042 -80.95703125 75.92578125 C-89.19252444 62.45985649 -90.60083226 47.73961087 -88.4765625 32.34765625 C-84.56074644 16.66135779 -76.09130895 5.82790298 -62.45703125 -2.39453125 C-58.15214396 -4.84496967 -53.77500771 -6.29789164 -48.9375 -7.3125 C-48.33993896 -7.48088379 -47.74237793 -7.64926758 -47.12670898 -7.82275391 C-31.00212569 -11.42997082 -14.02927088 -8.21463566 0 0 Z " fill="#C4C4C4" transform="translate(304.9375,213.3125)"/>
<path d="M0 0 C7.59 0 15.18 0 23 0 C23.00410889 1.71920654 23.00821777 3.43841309 23.01245117 5.2097168 C23.03198347 10.94149741 23.07450484 16.6728705 23.13209057 22.40437603 C23.16613008 25.87359147 23.19143402 29.34237737 23.19555664 32.81176758 C23.20072278 36.81643146 23.24607208 40.81982434 23.29296875 44.82421875 C23.2890361 46.04767502 23.28510345 47.27113129 23.28105164 48.53166199 C23.48493705 60.78198197 26.92382826 71.18447439 35.6328125 79.96484375 C42.71628113 86.05475655 49.2570805 86.45488748 58.44921875 86.53125 C63.93200968 85.71094245 66.97517266 83.32950574 70.3125 79 C73.00418931 74.21477455 73.1382486 70.41740011 73.20532227 64.93652344 C73.21522186 64.23368225 73.22512146 63.53084106 73.23532104 62.80670166 C73.26682784 60.49096 73.29165049 58.17519785 73.31640625 55.859375 C73.33698513 54.25082882 73.35798185 52.64228794 73.37937927 51.03375244 C73.43450348 46.8055043 73.48395521 42.57720814 73.53222656 38.34887695 C73.58251216 34.03202046 73.63816135 29.71523348 73.69335938 25.3984375 C73.80082288 16.93234891 73.90179813 8.46620109 74 0 C81.59 0 89.18 0 97 0 C97.09060721 10.64913545 97.16389215 21.2980121 97.20724869 31.94744682 C97.22806459 36.89317091 97.25627195 41.83861608 97.30175781 46.78417969 C97.34543039 51.56285443 97.36918215 56.34126199 97.37950897 61.120121 C97.38686208 62.93726935 97.40122049 64.75440418 97.42292023 66.57143784 C97.5651189 78.97941003 97.31418993 89.73730388 88.12890625 99.171875 C78.7509326 107.22488723 69.23558224 108.04453528 57.30859375 107.51953125 C43.13726264 106.42981426 33.47224555 99.2503477 24.46875 88.7578125 C23.9840625 88.17773438 23.499375 87.59765625 23 87 C21.01912963 88.98087037 21.63501301 92.77473748 21.5 95.5 C21.13513514 102.86486486 21.13513514 102.86486486 20 104 C13.4 104 6.8 104 0 104 C0 69.68 0 35.36 0 0 Z " fill="#C6C6C6" transform="translate(87,207)"/>
<path d="M0 0 C18.92778065 -2.50189271 18.92778065 -2.50189271 25.05761719 1.26416016 C28.70564828 4.79481982 31.13357752 9.11762958 33.57714844 13.52978516 C35.65729972 17.14113908 38.05266459 20.50965025 40.44287109 23.9206543 C43.0083954 27.5824706 45.50370573 31.29080326 48 35 C51.43199278 33.85600241 51.92636214 33.09979281 53.96875 30.23828125 C54.53505127 29.45501465 55.10135254 28.67174805 55.68481445 27.86474609 C56.28382568 27.02250488 56.88283691 26.18026367 57.5 25.3125 C58.75210602 23.58072822 60.00603313 21.85027176 61.26171875 20.12109375 C62.20023682 18.82727783 62.20023682 18.82727783 63.15771484 17.50732422 C65.8040318 13.90572401 68.54062481 10.38046952 71.3125 6.875 C71.77398437 6.29016846 72.23546875 5.70533691 72.7109375 5.1027832 C75.82990213 1.17009787 75.82990213 1.17009787 77 0 C79.07262076 -0.08767112 81.14820294 -0.10695873 83.22265625 -0.09765625 C84.48271484 -0.09443359 85.74277344 -0.09121094 87.04101562 -0.08789062 C88.38151109 -0.07953403 89.72200588 -0.07106907 91.0625 -0.0625 C92.40689942 -0.0574866 93.7513006 -0.05292342 95.09570312 -0.04882812 C98.39717941 -0.03699488 101.69856803 -0.02050971 105 0 C104.46125244 0.71506714 104.46125244 0.71506714 103.91162109 1.44458008 C100.68129511 5.74073643 97.48253423 10.05831556 94.3059082 14.39428711 C86.52984411 25.00293925 78.5878345 35.47970135 70.5871582 45.91967773 C70.063396 46.60618408 69.53963379 47.29269043 69 48 C68.42765625 48.70286133 67.8553125 49.40572266 67.265625 50.12988281 C66.84796875 50.74702148 66.4303125 51.36416016 66 52 C67.00134267 56.98929867 70.8376839 61.16945954 73.8125 65.1875 C74.98849228 66.79411639 76.16426715 68.40089193 77.33984375 70.0078125 C77.94425293 70.83055664 78.54866211 71.65330078 79.17138672 72.50097656 C81.53639371 75.73304753 83.87140859 78.98616976 86.20703125 82.23950195 C90.64929904 88.42629615 95.09584452 94.57458992 99.92578125 100.46875 C101 102 101 102 101 104 C80.82815613 106.84042091 80.82815613 106.84042091 74.94482422 102.47509766 C71.45324602 98.30208342 69.31788686 93.41882987 67.15332031 88.46386719 C65.32751897 84.56336185 62.94189926 81.09808378 60.5 77.5625 C60.08959473 76.9430249 59.67918945 76.3235498 59.25634766 75.68530273 C57.37797321 72.86774106 55.53220435 70.26437504 53 68 C52.72994141 68.57564697 52.45988281 69.15129395 52.18164062 69.74438477 C50.9807986 72.03665324 49.63244685 74.01090947 48.09375 76.08984375 C47.23511353 77.25809692 47.23511353 77.25809692 46.35913086 78.44995117 C45.09904415 80.13596869 43.8286616 81.81433129 42.54907227 83.4855957 C39.67312096 87.26034925 36.94491367 90.86014261 34.87109375 95.140625 C32.88183792 98.96190327 31.02875816 102.16530298 27 104 C17.45423342 105.55925155 7.59314172 104.79054074 -2 104 C1.940676 97.91253781 6.12480359 92.12122264 10.625 86.4375 C16.7295242 78.66025799 22.75633665 70.82823385 28.59765625 62.85058594 C29.60862558 61.51647251 30.66423187 60.21577546 31.74609375 58.93847656 C33.33604107 57.0123329 34.76900105 55.17317317 36 53 C35.91811762 50.34604603 35.91811762 50.34604603 34 48 C33.61005859 47.41831055 33.22011719 46.83662109 32.81835938 46.23730469 C31.34195236 44.07972276 29.80366946 41.97758704 28.25 39.875 C27.67942871 39.09382813 27.10885742 38.31265625 26.52099609 37.5078125 C24.68694467 35.00052696 22.84462729 32.49951319 21 30 C20.38350586 29.1637207 19.76701172 28.32744141 19.13183594 27.46582031 C16.70306537 24.17172844 14.2735286 20.87820472 11.84228516 17.5859375 C0 1.53134108 0 1.53134108 0 0 Z " fill="#C4C4C4" transform="translate(338,207)"/>
<path d="M0 0 C12.05544359 4.18909828 24.08758374 8.43838391 36.08569336 12.78930664 C40.59938033 14.42503775 45.11155861 16.05324743 49.6640625 17.578125 C50.32680176 17.80290527 50.98954102 18.02768555 51.67236328 18.25927734 C53.35152092 18.82497806 55.03495038 19.37795704 56.71875 19.9296875 C57.4715625 20.28289062 58.224375 20.63609375 59 21 C59.495 22.485 59.495 22.485 60 24 C55.9808553 31.60072122 48.85857067 37.73263728 41 41 C38.28909813 41.31182395 35.88683606 41.47795152 33.1875 41.4375 C32.48044922 41.42992676 31.77339844 41.42235352 31.04492188 41.41455078 C25.18631984 41.23029264 20.90202705 40.14358448 16 37 C14.95779297 36.38125 14.95779297 36.38125 13.89453125 35.75 C8.16685547 31.96736984 5.02620861 27.08133005 2 21 C1.6184375 20.24460937 1.236875 19.48921875 0.84375 18.7109375 C-0.30138445 15.03166293 -0.21350276 11.49652242 -0.125 7.6875 C-0.11597656 6.94693359 -0.10695312 6.20636719 -0.09765625 5.44335938 C-0.07424213 3.62876533 -0.03837615 1.81433929 0 0 Z " fill="#080808" transform="translate(239,255)"/>
</svg>
